<?xml version="1.0" standalone="no"?><!DOCTYPE svg PUBLIC "-//W3C//DTD SVG 1.1//EN" "http://www.w3.org/Graphics/SVG/1.1/DTD/svg11.dtd"><svg class="icon" width="16px" height="16.00px" viewBox="0 0 1024 1024" version="1.1" xmlns="http://www.w3.org/2000/svg"><path fill="#616161" d="M511.963002 316.994807c-107.263506 0-195.034191 87.767686-195.034191 195.034191 0 107.270505 87.770686 195.039191 195.034191 195.039191 107.270505 0 195.039191-87.767686 195.039191-195.039191 0-107.265505-87.769686-195.034191-195.039191-195.034191z m416.563779 148.490009C907.584049 272.331511 751.662489 116.414951 558.514184 95.474219V0.062996H465.42182V95.474219C272.270515 116.416951 116.352955 272.333511 95.412223 465.485816H0v93.084364h95.412223c20.940732 193.152305 176.860292 349.069865 370.009597 370.017597v95.412223h93.092364v-95.412223C751.660489 907.645045 907.584049 751.723485 928.526781 558.56918H1023.938004v-93.084364h-95.411223zM511.963002 853.345333c-187.718634 0-341.311335-153.589701-341.311334-341.316335 0-187.718634 153.5927-341.311335 341.311334-341.311334 187.725634 0 341.316334 153.5927 341.316335 341.311334 0 187.725634-153.5927 341.316334-341.316335 341.316335z" /></svg>