<?xml version="1.0" standalone="no"?><!DOCTYPE svg PUBLIC "-//W3C//DTD SVG 1.1//EN" "http://www.w3.org/Graphics/SVG/1.1/DTD/svg11.dtd"><svg t="1596171683869" class="icon" viewBox="0 0 1024 1024" version="1.1" xmlns="http://www.w3.org/2000/svg" p-id="7849" xmlns:xlink="http://www.w3.org/1999/xlink" width="35" height="35"><defs><style type="text/css"></style></defs><path d="M838.05184 939.05408H197.58592c-47.86688 0-86.8096-38.94272-86.8096-86.8096v-348.6208c0-47.86688 38.94272-86.8096 86.8096-86.8096h640.46592c47.86688 0 86.8096 38.94272 86.8096 86.8096v348.6208c0 47.86688-38.94784 86.8096-86.8096 86.8096z m-640.46592-450.56a15.14496 15.14496 0 0 0-15.1296 15.1296v348.6208a15.14496 15.14496 0 0 0 15.1296 15.1296h640.46592a15.14496 15.14496 0 0 0 15.1296-15.1296v-348.6208a15.14496 15.14496 0 0 0-15.1296-15.1296H197.58592z" p-id="7850" fill="#ffffff"></path><path d="M722.15552 933.93408H318.60224c-35.54304 0-64.46592-28.91776-64.46592-64.46592V614.4c0-35.54304 28.91776-64.46592 64.46592-64.46592h403.55328c35.54304 0 64.46592 28.91776 64.46592 64.46592v255.06816c0 35.54816-28.92288 64.46592-64.46592 64.46592z m-396.3392-71.68h389.12v-240.64h-389.12v240.64z" p-id="7851" fill="#ffffff"></path><path d="M945.33632 944.17408h-860.16a46.08 46.08 0 0 1-46.08-46.08 46.08 46.08 0 0 1 46.08-46.08h860.16a46.08 46.08 0 0 1 46.08 46.08 46.08 46.08 0 0 1-46.08 46.08zM267.42784 452.65408h-36.81792a16.4096 16.4096 0 0 1-16.4096-16.4096v-340.9408a16.4096 16.4096 0 0 1 16.4096-16.4096h36.81792a16.4096 16.4096 0 0 1 16.4096 16.4096v340.94592a16.41472 16.41472 0 0 1-16.4096 16.40448z" p-id="7852" fill="#ffffff"></path><path d="M325.23776 231.94112H172.8a15.94368 15.94368 0 0 1-15.94368-15.94368v-47.27808a15.94368 15.94368 0 0 1 15.94368-15.94368h152.43776a15.94368 15.94368 0 0 1 15.94368 15.94368v47.27808a15.9488 15.9488 0 0 1-15.94368 15.94368zM325.23776 358.6048H172.8a15.94368 15.94368 0 0 1-15.94368-15.94368v-47.27808a15.94368 15.94368 0 0 1 15.94368-15.94368h152.43776a15.94368 15.94368 0 0 1 15.94368 15.94368v47.27808a15.9488 15.9488 0 0 1-15.94368 15.94368zM538.78784 452.65408h-36.81792a16.4096 16.4096 0 0 1-16.4096-16.4096v-340.9408a16.4096 16.4096 0 0 1 16.4096-16.4096h36.81792a16.4096 16.4096 0 0 1 16.4096 16.4096v340.94592a16.41472 16.41472 0 0 1-16.4096 16.40448z" p-id="7853" fill="#ffffff"></path><path d="M596.59776 231.94112H444.16a15.94368 15.94368 0 0 1-15.94368-15.94368v-47.27808a15.94368 15.94368 0 0 1 15.94368-15.94368h152.43776a15.94368 15.94368 0 0 1 15.94368 15.94368v47.27808a15.9488 15.9488 0 0 1-15.94368 15.94368zM596.59776 358.6048H444.16a15.94368 15.94368 0 0 1-15.94368-15.94368v-47.27808a15.94368 15.94368 0 0 1 15.94368-15.94368h152.43776a15.94368 15.94368 0 0 1 15.94368 15.94368v47.27808a15.9488 15.9488 0 0 1-15.94368 15.94368zM810.14784 452.65408h-36.81792a16.4096 16.4096 0 0 1-16.4096-16.4096v-340.9408a16.4096 16.4096 0 0 1 16.4096-16.4096h36.81792a16.4096 16.4096 0 0 1 16.4096 16.4096v340.94592a16.41472 16.41472 0 0 1-16.4096 16.40448z" p-id="7854" fill="#ffffff"></path><path d="M867.95776 231.94112H715.52a15.94368 15.94368 0 0 1-15.94368-15.94368v-47.27808a15.94368 15.94368 0 0 1 15.94368-15.94368h152.43776a15.94368 15.94368 0 0 1 15.94368 15.94368v47.27808a15.9488 15.9488 0 0 1-15.94368 15.94368zM867.95776 358.6048H715.52a15.94368 15.94368 0 0 1-15.94368-15.94368v-47.27808a15.94368 15.94368 0 0 1 15.94368-15.94368h152.43776a15.94368 15.94368 0 0 1 15.94368 15.94368v47.27808a15.9488 15.9488 0 0 1-15.94368 15.94368z" p-id="7855" fill="#ffffff"></path></svg>