<?xml version="1.0" standalone="no"?><!DOCTYPE svg PUBLIC "-//W3C//DTD SVG 1.1//EN" "http://www.w3.org/Graphics/SVG/1.1/DTD/svg11.dtd"><svg t="1592537734652" class="icon" viewBox="0 0 1024 1024" version="1.1" xmlns="http://www.w3.org/2000/svg" p-id="748" xmlns:xlink="http://www.w3.org/1999/xlink" width="200" height="200"><defs><style type="text/css"></style></defs><path d="M813.94 269.35c1.17 2.63 2.12 5.7 2.85 9.21 0.73 3.51 1.09 7.16 1.09 10.96s-0.73 7.6-2.19 11.41-3.8 7.46-7.02 10.96c-3.51 3.51-6.65 6.58-9.43 9.21-2.78 2.63-5.19 4.97-7.24 7.02-2.34 2.34-4.53 4.39-6.58 6.15l-82.03-82.03c3.51-3.22 7.68-7.09 12.51-11.62s8.85-8.11 12.06-10.75c4.1-3.22 8.34-5.49 12.72-6.79 4.38-1.31 8.69-1.9 12.94-1.75 4.25 0.14 8.34 0.8 12.28 1.98s7.37 2.49 10.3 3.94c6.14 3.22 12.94 8.85 20.4 16.89s13.23 16.45 17.32 25.22l0.02-0.01M472.23 483.4c1.76-1.76 5.85-5.93 12.28-12.51s14.47-14.69 24.13-24.34L670.5 284.7l82.03 82.46-94.31 94.31L623.13 497c-11.7 11.41-22.22 21.86-31.58 31.36s-17.11 17.32-23.25 23.47c-6.14 6.15-9.79 9.66-10.96 10.53-2.93 2.63-6.29 5.41-10.09 8.34-3.8 2.93-7.75 5.27-11.85 7.02-4.1 2.05-10.09 4.53-17.98 7.45-7.89 2.92-16.15 5.77-24.79 8.55-8.64 2.78-16.82 5.19-24.56 7.24s-13.51 3.36-17.32 3.94c-7.9 0.88-13.16-0.29-15.79-3.51-2.63-3.22-3.36-8.63-2.19-16.23 0.59-4.1 1.98-10.02 4.17-17.77 2.28-8.06 4.62-16.1 7.02-24.13 2.49-8.34 4.9-16.01 7.24-23.03s4.24-11.84 5.7-14.47c1.76-4.1 3.73-7.83 5.92-11.19 2.19-3.36 5.34-7.09 9.43-11.19l-0.02 0.02" p-id="749" fill="#6a6a6a"></path><path d="M266.9 757.36m-44.8 0a44.8 44.8 0 1 0 89.6 0 44.8 44.8 0 1 0-89.6 0Z" p-id="750" fill="#6a6a6a"></path><path d="M278.32 768.57l-22.84-22.4 92.46-94.25-140.47-70.86c-8.04-4.08-14.01-11.39-16.37-20.08-2.37-8.7-0.93-18.03 3.94-25.61l89.71-139.73 26.92 17.28-89.71 139.73 140.46 70.9c9.04 4.56 15.42 13.26 17.07 23.26s-1.61 20.28-8.71 27.51l-92.46 94.25z" p-id="751" fill="#6a6a6a"></path><path d="M298.2 404.28m-57.31 0a57.31 57.31 0 1 0 114.62 0 57.31 57.31 0 1 0-114.62 0Z" p-id="752" fill="#6a6a6a"></path></svg>