<?xml version="1.0" standalone="no"?><!DOCTYPE svg PUBLIC "-//W3C//DTD SVG 1.1//EN" "http://www.w3.org/Graphics/SVG/1.1/DTD/svg11.dtd"><svg t="1592538189825" class="icon" viewBox="0 0 1024 1024" version="1.1" xmlns="http://www.w3.org/2000/svg" p-id="12943" xmlns:xlink="http://www.w3.org/1999/xlink" width="200" height="200"><defs><style type="text/css"></style></defs><path d="M512 69.818182c-257.070545 0-465.454545 208.384-465.454545 465.454545 0 257.070545 208.384 465.454545 465.454545 465.454545 257.070545 0 465.454545-208.384 465.454545-465.454545C977.454545 278.202182 769.070545 69.818182 512 69.818182zM512 954.181818c-231.377455 0-418.909091-187.531636-418.909091-418.909091s187.531636-418.909091 418.909091-418.909091c231.377455 0 418.909091 187.531636 418.909091 418.909091S743.377455 954.181818 512 954.181818zM734.161455 393.402182l-312.692364 312.692364-131.630545-131.630545c-9.076364-9.076364-23.831273-9.076364-32.907636 0-9.076364 9.076364-9.076364 23.831273 0 32.907636l148.107636 148.107636c9.076364 9.076364 23.831273 9.076364 32.907636 0l329.122909-329.122909c9.076364-9.076364 9.076364-23.831273 0-32.907636C757.992727 384.325818 743.237818 384.325818 734.161455 393.402182z" p-id="12944" fill="#1296db"></path></svg>