<?xml version="1.0" standalone="no"?><!DOCTYPE svg PUBLIC "-//W3C//DTD SVG 1.1//EN" "http://www.w3.org/Graphics/SVG/1.1/DTD/svg11.dtd"><svg class="icon" width="16px" height="16.00px" viewBox="0 0 1024 1024" version="1.1" xmlns="http://www.w3.org/2000/svg"><path fill="#616161" d="M488.469521 967.961963v-103.053193h47.049508v103.053193l363.36556-181.70568a23.519029 23.519029 0 0 0 13.007603-21.034302V582.577371h47.049508v182.64461a70.591438 70.591438 0 0 1-38.999908 63.114356l-376.373164 188.198032a70.579987 70.579987 0 0 1-63.148707 0L104.023857 828.336337A70.579987 70.579987 0 0 1 65.023949 765.221981V582.577371h47.049508v182.64461a23.530479 23.530479 0 0 0 13.007603 21.034302zM535.519029 55.987002v103.053194h-47.049508v-103.053194L125.08106 237.738485a23.530479 23.530479 0 0 0-13.007603 21.034301v182.656061H65.023949V258.772786a70.568537 70.568537 0 0 1 38.999908-63.091455L480.419921 7.460399a70.545636 70.545636 0 0 1 63.148707 0l376.396064 188.220932a70.591438 70.591438 0 0 1 38.999909 63.114356v182.63316h-47.049508V258.772786a23.519029 23.519029 0 0 0-13.030504-21.034301zM382.473586 348.497767h20.01522l147.377517 328.167169h-54.389185l-34.557171-79.980728H319.920298l-36.698388 79.980728h-53.530408z m58.202154 201.526245l-48.858664-111.98447-51.194537 111.98447z m229.007096-13.648823L771.659697 676.722188h-60.732682l-94.053215-134.850829h-8.965628v134.805028h-49.70599V347.31838h58.225054q65.267023 0 94.282222 24.538111 32.060994 27.286196 31.992291 72.137235 0 34.935033-20.049571 60.148714t-52.900639 32.186948z m-61.831916-37.786171h15.81294q70.579987 0 70.602888-53.965522 0-50.564767-68.702129-50.587668H607.885271v104.54174z m0 0" /></svg>