<svg width="1024" height="1024" xmlns="http://www.w3.org/2000/svg" class="icon">

 <g>
  <title>background</title>
  <rect fill="none" id="canvas_background" height="402" width="582" y="-1" x="-1"/>
 </g>
 <g>
  <title>Layer 1</title>
  <path stroke="null" stroke-width="0" id="svg_1" d="m838.497057,456.299997l-652.356518,0c-31.398542,0 -56.740513,24.430618 -56.740513,54.7s25.341971,54.7 56.740513,54.7l651.718984,0c31.398542,0 56.740513,-24.430618 56.740513,-54.7s-24.704437,-54.7 -56.102979,-54.7z" fill="#616161"/>
  <path transform="rotate(90 512,511.00000000000006) " stroke="null" stroke-width="0" id="svg_2" d="m838.497057,456.299997l-652.356517,0c-31.398543,0 -56.740514,24.430618 -56.740514,54.700001s25.341971,54.7 56.740514,54.7l651.718983,0c31.398543,0 56.740513,-24.430618 56.740513,-54.7s-24.704436,-54.700001 -56.102979,-54.700001z" fill="#616161"/>
 </g>
</svg>