<?xml version="1.0" standalone="no"?>
<!DOCTYPE svg PUBLIC "-//W3C//DTD SVG 1.1//EN" "http://www.w3.org/Graphics/SVG/1.1/DTD/svg11.dtd">
<svg class="icon" width="16px" height="16.00px" viewBox="0 0 1024 1024" version="1.1" xmlns="http://www.w3.org/2000/svg">
<path d="M266.24 344.75008C173.8752 344.75008 98.99008 419.62496 98.99008 512c0 92.3648 74.87488 167.24992 167.24992 167.24992h491.52c92.3648 0 167.24992-74.87488 167.24992-167.24992 0-92.3648-74.87488-167.24992-167.24992-167.24992H266.24zM266.24 307.2h491.52c113.11104 0 204.8 91.68896 204.8 204.8s-91.68896 204.8-204.8 204.8H266.24C153.12896 716.8 61.44 625.11104 61.44 512S153.12896 307.2 266.24 307.2z" fill="#000000" /><path d="M192.84992 512a93.87008 93.09184 0 1 0 187.74016 0 93.87008 93.09184 0 1 0-187.74016 0Z" fill="#888888" /><path d="M418.12992 512a93.87008 93.09184 0 1 0 187.74016 0 93.87008 93.09184 0 1 0-187.74016 0Z" fill="#888888" /><path d="M643.40992 512a93.87008 93.09184 0 1 0 187.74016 0 93.87008 93.09184 0 1 0-187.74016 0Z" fill="#888888" /></svg>