<?xml version="1.0" standalone="no"?><!DOCTYPE svg PUBLIC "-//W3C//DTD SVG 1.1//EN" "http://www.w3.org/Graphics/SVG/1.1/DTD/svg11.dtd"><svg t="1596168854672" class="icon" viewBox="0 0 1033 1024" version="1.1" xmlns="http://www.w3.org/2000/svg" p-id="7400" width="35.3076171875" height="35" xmlns:xlink="http://www.w3.org/1999/xlink"><defs><style type="text/css"></style></defs><path d="M858.593808 1023.988649H175.12395a29.998084 29.998084 0 0 1-29.998084-29.998084V201.068238a29.998084 29.998084 0 0 1 29.998084-29.998084h683.469858a29.998084 29.998084 0 0 1 29.998084 29.998084v792.922327a29.998084 29.998084 0 0 1-29.998084 29.998084z m-648.60722-60.806927h621.852172v-729.683123H205.932793z" fill="#707070" p-id="7401"></path><path d="M1003.719674 1023.988649h-972.910831a29.998084 29.998084 0 0 1-30.808843-29.998084 30.808843 30.808843 0 0 1 30.808843-30.808843h972.910831a30.808843 30.808843 0 0 1 29.998084 30.808843 29.998084 29.998084 0 0 1-29.998084 29.998084zM979.396903 231.877081H54.320855a29.998084 29.998084 0 0 1-29.998084-30.808843V30.808843A29.998084 29.998084 0 0 1 54.320855 0h925.076048a29.998084 29.998084 0 0 1 29.998084 30.808843v170.259395a29.998084 29.998084 0 0 1-29.998084 30.808843z m-891.834928-60.806927H948.58806V60.806927H85.129698zM598.340161 810.759026H381.867501a129.721444 129.721444 0 0 1 0-259.442889H648.607221a68.914517 68.914517 0 0 0 0-137.829034H428.080766v-59.185409H648.607221a129.721444 129.721444 0 1 1 0 259.442888H381.867501a68.914517 68.914517 0 1 0 0 137.829035h216.47266z" fill="#707070" p-id="7402"></path><path d="M355.112453 486.455415a102.966396 102.966396 0 1 1 102.966396-102.155637A102.966396 102.966396 0 0 1 355.112453 486.455415z m0-145.125865a42.159469 42.159469 0 1 0 42.15947 42.159469 42.159469 42.159469 0 0 0-42.15947-41.34871zM671.308473 884.538097a102.966396 102.966396 0 1 1 102.966396-102.966396 102.966396 102.966396 0 0 1-102.966396 102.966396z m0-145.125866a42.159469 42.159469 0 1 0 42.15947 42.15947 42.159469 42.159469 0 0 0-42.15947-42.15947z" fill="#707070" p-id="7403"></path></svg>