<?xml version="1.0" standalone="no"?><!DOCTYPE svg PUBLIC "-//W3C//DTD SVG 1.1//EN" "http://www.w3.org/Graphics/SVG/1.1/DTD/svg11.dtd"><svg t="1596171612433" class="icon" viewBox="0 0 1024 1024" version="1.1" xmlns="http://www.w3.org/2000/svg" p-id="6187" xmlns:xlink="http://www.w3.org/1999/xlink" width="35" height="35"><defs><style type="text/css"></style></defs><path d="M748.8 554.88l96.64 39.68a28.16 28.16 0 0 0 28.16-28.16 25.6 25.6 0 0 0-8.32-19.84L748.8 429.44z m-570.24 39.68l96.64-39.68v-128L158.72 546.56a26.88 26.88 0 0 0 0 39.68 28.16 28.16 0 0 0 19.84 8.32z" fill="#ffffff" p-id="6188"></path><path d="M904.32 175.36h-234.24L532.48 37.12a28.8 28.8 0 0 0-40.32 0L353.92 175.36H119.68a34.56 34.56 0 0 0 0 69.12h212.48v263.68l-115.2 430.08H147.84a28.8 28.8 0 0 0 0 56.96h728.32a28.8 28.8 0 0 0 0-56.96h-69.12l-26.88-98.56-88.32-331.52V244.48h212.48a34.56 34.56 0 0 0 0-69.12zM512 97.92l78.08 78.08H433.28z m83.2 384H428.8L512 400z m-43.52-120.96l83.84-83.2v165.12z m34.56 179.84L512 603.52l-74.88-64zM388.48 442.88V277.12l83.2 83.2z m-12.16 119.04L468.48 640 320 768z m-28.16 256L512 677.76l163.2 139.52zM704 768l-148.48-128 92.16-78.72zM512 320L435.84 244.48h151.68z" fill="#ffffff" p-id="6189"></path></svg>