<?xml version="1.0" encoding="UTF-8"?>
<svg xmlns="http://www.w3.org/2000/svg" xmlns:xlink="http://www.w3.org/1999/xlink" xmlns:cge="http://iec.ch/TC57/2005/SVG-schema#" width="14" height="14" >
  <defs>
   <symbol preserveAspectRatio="xMidYMid" viewBox="0 0 14.0 14.0" id="配电低压物理杆塔(10)@20">
     <circle fill="none" cx="7.0" cy="7.0" stroke="rgb(160,40,0)" r="6.0" stroke-width="1"/>
     <polygon fill="rgb(160,40,0)" points="7.0,1.0 7.0,13.0 7.1,13.0 7.1,13.0 7.2,13.0 7.3,13.0 7.3,13.0 7.4,13.0 7.5,13.0 7.5,13.0 7.6,13.0 7.7,13.0 7.7,13.0 7.8,13.0 7.8,13.0 7.9,12.9 8.0,12.9 8.1,12.9 8.1,12.9 8.2,12.9 8.3,12.9 8.4,12.9 8.5,12.8 8.5,12.8 8.6,12.8 8.6,12.8 8.6,12.8 8.7,12.8 8.8,12.8 8.8,12.7 8.9,12.7 9.0,12.7 9.1,12.7 9.1,12.6 9.1,12.6 9.2,12.6 9.2,12.6 9.3,12.6 9.3,12.6 9.4,12.5 9.4,12.5 9.5,12.5 9.6,12.4 9.6,12.4 9.7,12.4 9.8,12.3 9.8,12.3 9.9,12.3 9.9,12.2 10.0,12.2 10.1,12.2 10.1,12.1 10.2,12.1 10.2,12.0 10.3,12.0 10.3,12.0 10.4,11.9 10.5,11.9 10.5,11.9 10.6,11.8 10.6,11.8 10.7,11.7 10.7,11.7 10.8,11.6 10.9,11.6 10.9,11.5 11.0,11.5 11.1,11.4 11.1,11.3 11.2,11.3 11.3,11.2 11.3,11.1 11.4,11.1 11.5,11.0 11.5,11.0 11.5,10.9 11.6,10.9 11.6,10.8 11.7,10.7 11.7,10.7 11.8,10.6 11.8,10.6 11.8,10.5 11.9,10.5 11.9,10.4 12.0,10.3 12.0,10.2 12.1,10.2 12.1,10.1 12.1,10.0 12.2,10.0 12.2,9.9 12.3,9.8 12.3,9.7 12.3,9.7 12.4,9.6 12.4,9.6 12.4,9.5 12.4,9.5 12.5,9.4 12.5,9.3 12.5,9.3 12.5,9.2 12.6,9.1 12.6,9.0 12.6,9.0 12.7,8.9 12.7,8.8 12.7,8.7 12.7,8.6 12.8,8.5 12.8,8.4 12.8,8.4 12.8,8.2 12.9,8.2 12.9,8.1 12.9,8.0 12.9,7.9 12.9,7.9 12.9,7.8 12.9,7.7 12.9,7.6 12.9,7.6 12.9,7.5 12.9,7.4 12.9,7.3 12.9,7.3 13.0,7.2 13.0,7.3 12.9,7.2 12.9,7.1 13.0,7.0 13.0,7.0 13.0,6.9 13.0,6.8 13.0,6.7 13.0,6.7 13.0,6.6 12.9,6.5 12.9,6.4 12.9,6.3 12.9,6.2 12.9,6.1 12.9,6.0 12.9,5.9 12.9,5.9 12.8,5.8 12.8,5.7 12.8,5.6 12.8,5.5 12.8,5.4 12.7,5.4 12.7,5.3 12.7,5.3 12.7,5.2 12.7,5.1 12.6,5.0 12.6,5.0 12.6,4.9 12.5,4.8 12.5,4.8 12.5,4.7 12.4,4.6 12.4,4.5 12.4,4.5 12.3,4.4 12.3,4.3 12.2,4.2 12.2,4.1 12.2,4.0 12.1,4.0 12.1,3.9 12.1,3.9 12.0,3.8 12.0,3.7 11.9,3.6 11.8,3.5 11.8,3.5 11.8,3.5 11.7,3.4 11.7,3.4 11.7,3.3 11.7,3.3 11.6,3.3 11.6,3.2 11.5,3.1 11.4,3.1 11.4,3.0 11.4,3.0 11.3,2.9 11.3,2.8 11.2,2.8 11.2,2.8 11.2,2.7 11.1,2.7 11.0,2.6 10.9,2.6 10.9,2.5 10.8,2.4 10.8,2.4 10.7,2.3 10.6,2.2 10.5,2.2 10.5,2.2 10.5,2.1 10.4,2.1 10.3,2.1 10.3,2.0 10.2,2.0 10.0,1.9 10.0,1.9 10.0,1.9 9.9,1.8 9.8,1.8 9.7,1.7 9.6,1.6 9.5,1.6 9.5,1.6 9.4,1.6 9.4,1.5 9.3,1.5 9.2,1.5 9.2,1.5 9.1,1.4 9.1,1.4 9.0,1.4 9.0,1.4 8.9,1.4 8.8,1.3 8.7,1.3 8.6,1.3 8.6,1.3 8.5,1.2 8.4,1.2 8.3,1.2 8.3,1.2 8.2,1.2 8.0,1.1 7.9,1.1 7.9,1.1 7.8,1.1 7.7,1.1 7.6,1.1 7.6,1.1 7.5,1.0 7.3,1.0 7.2,1.0 7.2,1.0 7.1,1.0 7.1,1.0 7.0,1.0 7.0,1.0 7.0,1.0" stroke="rgb(160,40,0)" stroke-width="1"/>
   </symbol>
  </defs>
  <g id="100">
    <use class="kv10" x="0" y="0"  xlink:href="#配电低压物理杆塔(10)@20"/>
  </g>
</svg>